<svg width="516" height="103" viewBox="0 0 516 103" fill="none" xmlns="http://www.w3.org/2000/svg">
<path d="M78.824 66.88C78.824 73.696 77.336 79.792 74.36 85.168C71.48 90.544 67.112 94.768 61.256 97.84C55.4 100.912 48.248 102.448 39.8 102.448C27.128 102.448 17.48 99.232 10.856 92.8C4.232 86.368 0.92 77.728 0.92 66.88V0.207997H24.536V65.872C24.536 72.304 25.736 77.104 28.136 80.272C30.632 83.344 34.52 84.88 39.8 84.88C45.176 84.88 49.064 83.344 51.464 80.272C53.96 77.104 55.208 72.304 55.208 65.872V0.207997H78.824V66.88ZM129.133 0.207997V100H105.517V0.207997H129.133ZM267.412 100H245.812V72.784C245.812 67.408 246.1 62.32 246.676 57.52C247.252 52.72 247.972 48.688 248.836 45.424L223.348 100H200.164V23.536H221.908V51.184C221.908 56.272 221.572 61.264 220.9 66.16C220.324 71.056 219.652 75.088 218.884 78.256L244.084 23.536H267.412V100ZM415.03 66.88C415.03 73.696 413.542 79.792 410.566 85.168C407.686 90.544 403.318 94.768 397.462 97.84C391.606 100.912 384.454 102.448 376.006 102.448C363.334 102.448 353.686 99.232 347.062 92.8C340.438 86.368 337.126 77.728 337.126 66.88V0.207997H360.742V65.872C360.742 72.304 361.942 77.104 364.342 80.272C366.838 83.344 370.726 84.88 376.006 84.88C381.382 84.88 385.27 83.344 387.67 80.272C390.166 77.104 391.414 72.304 391.414 65.872V0.207997H415.03V66.88ZM486.678 46.144L515.478 100H489.702L472.566 61.984L455.718 100H430.662L458.598 47.008L432.822 0.207997H458.454L472.854 32.176L487.974 0.207997H513.03L486.678 46.144Z" fill="white"/>
</svg>
